<svg xmlns="http://www.w3.org/2000/svg" xmlns:xlink="http://www.w3.org/1999/xlink" version="1.1" id="Ebene_1" x="0px" y="0px" width="100px" height="100px" viewBox="0 0 100 100" enable-background="new 0 0 100 100" xml:space="preserve">
<path d="M98.156,41.516c0.006,0-14.455-24.12-14.455-24.12c-0.849-1.415-2.893-2.573-4.543-2.573H21.22  c-1.65,0-3.694,1.158-4.543,2.572L2.205,41.516h0c0,0-0.847,1.588,0.624,3.268L48.2,96.598c0.544,0.621,1.26,0.931,1.977,0.931  c0.717,0,1.434-0.31,1.977-0.931l45.313-51.723c0.023-0.031,0.039-0.061,0.066-0.091C99.003,43.104,98.156,41.516,98.156,41.516z   M36.174,41.808l5.736-23.984h16.559l5.742,23.984H36.174z M64.611,44.82l-14.42,46.019L35.774,44.82H64.611z M19.249,18.939  c0.307-0.511,1.375-1.116,1.971-1.116h17.605l-5.736,23.984H5.529L19.249,18.939z M32.63,44.82l14.364,45.846L6.849,44.82H32.63z   M53.404,90.617L67.756,44.82h25.77L53.404,90.617z M67.296,41.808l-5.742-23.984h17.604c0.596,0,1.664,0.605,1.971,1.116  l13.718,22.868H67.296z"/>
</svg>